<svg width="25" height="24" viewBox="0 0 25 24" fill="none" xmlns="http://www.w3.org/2000/svg">
<path d="M17.3 2H14.7C11.5 2 9.5 4 9.5 7.2V11.25H15.75C16.16 11.25 16.5 11.59 16.5 12C16.5 12.41 16.16 12.75 15.75 12.75H9.5V16.8C9.5 20 11.5 22 14.7 22H17.29C20.49 22 22.49 20 22.49 16.8V7.2C22.5 4 20.5 2 17.3 2Z" fill="#FF453A"/>
<path d="M5.06043 11.2501L7.13043 9.18009C7.28043 9.03009 7.35043 8.84009 7.35043 8.65009C7.35043 8.46009 7.28043 8.26009 7.13043 8.12009C6.84043 7.83009 6.36043 7.83009 6.07043 8.12009L2.72043 11.4701C2.43043 11.7601 2.43043 12.2401 2.72043 12.5301L6.07043 15.8801C6.36043 16.1701 6.84043 16.1701 7.13043 15.8801C7.42043 15.5901 7.42043 15.1101 7.13043 14.8201L5.06043 12.7501H9.50043V11.2501H5.06043Z" fill="#FF453A"/>
</svg>
