<svg width="40" height="40" viewBox="0 0 40 40" fill="none" xmlns="http://www.w3.org/2000/svg">
<path d="M0 8C0 3.58172 3.58172 0 8 0H32C36.4183 0 40 3.58172 40 8V32C40 36.4183 36.4183 40 32 40H8C3.58172 40 0 36.4183 0 32V8Z" fill="#F5F1EF"/>
<path d="M28.5636 22.905L27.3969 20.9683C27.1519 20.5366 26.9303 19.72 26.9303 19.2416V16.29C26.9303 13.5483 25.3203 11.18 22.9986 10.0716C22.3919 8.99831 21.2719 8.33331 19.9886 8.33331C18.7169 8.33331 17.5736 9.02165 16.9669 10.1066C14.6919 11.2383 13.1169 13.5833 13.1169 16.29V19.2416C13.1169 19.72 12.8953 20.5366 12.6503 20.9566L11.4719 22.905C11.0053 23.6866 10.9003 24.55 11.1919 25.3433C11.4719 26.125 12.1369 26.7316 13.0003 27.0233C15.2636 27.7933 17.6436 28.1666 20.0236 28.1666C22.4036 28.1666 24.7836 27.7933 27.0469 27.035C27.8636 26.7666 28.4936 26.1483 28.7969 25.3433C29.1003 24.5383 29.0186 23.6516 28.5636 22.905Z" fill="#A88371"/>
<path d="M23.3016 29.345C22.8116 30.6983 21.5166 31.6666 20 31.6666C19.0783 31.6666 18.1683 31.2933 17.5266 30.6283C17.1533 30.2783 16.8733 29.8116 16.71 29.3333C16.8616 29.3566 17.0133 29.3683 17.1766 29.3916C17.445 29.4266 17.725 29.4616 18.005 29.485C18.67 29.5433 19.3466 29.5783 20.0233 29.5783C20.6883 29.5783 21.3533 29.5433 22.0066 29.485C22.2516 29.4616 22.4966 29.45 22.73 29.415C22.9166 29.3916 23.1033 29.3683 23.3016 29.345Z" fill="#A88371"/>
</svg>
