<svg width="16" height="18" viewBox="0 0 16 18" fill="none" xmlns="http://www.w3.org/2000/svg">
<path d="M0.5 2.31716C0.500191 1.90188 0.611929 1.49428 0.823533 1.13697C1.03514 0.779649 1.33884 0.485731 1.70289 0.285936C2.06694 0.0861417 2.47798 -0.0121939 2.89304 0.00120777C3.3081 0.0146095 3.71193 0.139257 4.06234 0.36212L14.4264 6.9567C14.7554 7.16608 15.0263 7.45508 15.2139 7.79695C15.4016 8.13882 15.5 8.52251 15.5 8.91251C15.5 9.30251 15.4016 9.6862 15.2139 10.0281C15.0263 10.3699 14.7554 10.6589 14.4264 10.8683L4.06234 17.4644C3.71182 17.6874 3.30784 17.812 2.89265 17.8254C2.47746 17.8387 2.06631 17.7402 1.70221 17.5403C1.33811 17.3403 1.03444 17.0461 0.822943 16.6886C0.611451 16.3311 0.499915 15.9233 0.5 15.5079V2.31716Z"/>
</svg>
